<?xml version="1.0" standalone="no"?>
<!DOCTYPE svg PUBLIC "-//W3C//DTD SVG 20010904//EN"
 "http://www.w3.org/TR/2001/REC-SVG-20010904/DTD/svg10.dtd">
<svg version="1.0" xmlns="http://www.w3.org/2000/svg"
 width="50.000000pt" height="50.000000pt" viewBox="0 0 50.000000 50.000000"
 preserveAspectRatio="xMidYMid meet">

<g transform="translate(0.000000,50.000000) scale(0.100000,-0.100000)"
fill="#000000" stroke="none">
<path d="M193 363 c-22 -4 -23 -9 -23 -99 l0 -94 -34 0 c-42 0 -58 -19 -54
-62 6 -59 78 -71 105 -17 8 14 13 64 13 121 l0 97 38 10 c20 5 53 12 72 16 19
4 43 9 53 11 15 5 17 -3 17 -66 0 -67 -1 -71 -20 -65 -26 8 -66 -16 -75 -45
-4 -13 0 -31 10 -46 13 -21 23 -25 53 -22 51 4 59 28 54 161 l-4 107 -91 -1
c-51 -1 -102 -4 -114 -6z m170 -197 c8 -19 -15 -37 -32 -26 -17 10 -7 40 13
40 7 0 16 -6 19 -14z m-211 -68 c-17 -17 -47 9 -30 29 10 12 13 12 27 -1 11
-12 12 -19 3 -28z"/>
</g>
</svg>
